<!DOCTYPE svg PUBLIC "-//W3C//DTD SVG 1.1//EN" "http://www.w3.org/Graphics/SVG/1.1/DTD/svg11.dtd">
<!-- Uploaded to: SVG Repo, www.svgrepo.com, Transformed by: SVG Repo Mixer Tools -->
<svg height="800px" width="800px" version="1.1" id="Layer_1" xmlns="http://www.w3.org/2000/svg" xmlns:xlink="http://www.w3.org/1999/xlink" viewBox="0 0 392.558 392.558" xml:space="preserve" fill="#000000">
<g id="SVGRepo_bgCarrier" stroke-width="0"/>
<g id="SVGRepo_tracerCarrier" stroke-linecap="round" stroke-linejoin="round"/>
<g id="SVGRepo_iconCarrier"> <path style="fill:#FFFFFF;" d="M72.841,26.186c-5.883-5.883-15.451-5.883-21.333,0l-8.792,8.857 C-2.73,80.489,30.95,191.034,116.284,276.432C201.617,361.766,312.098,395.446,357.609,350l8.857-8.857 c5.883-5.883,5.883-15.451,0-21.333l-77.253-77.317c-5.883-5.883-15.451-5.883-21.333,0l-35.297,35.297 c-20.234,20.234-61.996,10.214-94.966-22.82s-43.055-74.731-22.82-94.966l35.297-35.297c5.883-5.883,5.883-15.451,0-21.269 L72.841,26.186z"/> <path style="fill:#56ACE0;" d="M190.11,309.143c25.212,6.271,46.352-4.59,57.471-15.58l30.578-30.578l67.685,67.685l-4.073,4.073 C332.461,344.182,266.975,366.162,190.11,309.143z M83.443,202.541C67.928,178.881,26.36,94.517,57.779,50.752l4.073-4.073 l67.685,67.685l-30.578,30.578C84.866,159.099,79.371,179.721,83.443,202.541z"/> <g> <path style="fill:#194F82;" d="M381.851,304.36l-77.253-77.253c-14.352-14.352-37.689-14.352-52.105,0l-35.297,35.297 c-9.762,9.762-39.24,2.069-64.129-22.82s-32.582-54.368-22.82-64.129l35.297-35.297c14.352-14.352,14.352-37.689,0-52.105 L88.292,10.8C73.94-3.552,50.603-3.552,36.187,10.8l-8.986,8.792C-28.46,75.253,3.863,194.784,100.769,291.754 c96.97,96.905,216.436,129.228,272.162,73.568l8.857-8.857C396.138,342.113,396.138,318.776,381.851,304.36z M366.401,341.079 l-8.857,8.857c-45.446,45.446-155.992,11.766-241.39-73.503C30.886,191.034-2.795,80.489,42.716,35.107l8.857-8.857 c5.883-5.883,15.451-5.883,21.333,0l13.899,13.964L52.542,74.477c-4.267,4.267-4.267,11.119,0,15.386s11.119,4.267,15.386,0 l34.263-34.133l15.386,15.386l-14.998,14.869c-4.267,4.267-4.267,11.119,0,15.386s11.119,4.267,15.386,0l14.998-14.998 l17.002,17.002c5.883,5.883,5.883,15.451,0,21.269l-35.297,35.297c-20.234,20.234-10.214,61.996,22.82,94.966 s74.731,43.055,94.966,22.82l35.297-35.297c5.883-5.883,15.451-5.883,21.333,0l77.253,77.253 C372.284,325.628,372.284,335.196,366.401,341.079z"/> <path style="fill:#194F82;" d="M214.805,22.113c85.851,0,155.733,69.883,155.733,155.733c0,6.012,4.848,10.925,10.925,10.925 s10.925-4.848,10.925-10.925C392.259,79.907,312.68,0.327,214.805,0.327c-6.012,0-10.925,4.848-10.925,10.925 S208.728,22.113,214.805,22.113z"/> <path style="fill:#194F82;" d="M214.805,65.685c61.802,0,112.097,50.295,112.097,112.097c0,6.012,4.848,10.925,10.925,10.925 c6.012,0,10.925-4.848,10.925-10.925c0-73.891-60.057-133.883-133.883-133.883c-6.012,0-10.925,4.848-10.925,10.925 C203.88,60.836,208.728,65.685,214.805,65.685z"/> <path style="fill:#194F82;" d="M214.805,87.471c-6.012,0-10.925,4.848-10.925,10.925c0,6.077,4.848,10.925,10.925,10.925 c37.818,0,68.525,30.772,68.525,68.525c0,6.012,4.848,10.925,10.925,10.925c6.077,0,10.925-4.848,10.925-10.925 C305.116,127.939,264.647,87.471,214.805,87.471z"/> </g> </g>
</svg>