<?xml version="1.0" encoding="iso-8859-1"?>
<!-- Uploaded to: SVG Repo, www.svgrepo.com, Generator: SVG Repo Mixer Tools -->
<svg height="800px" width="800px" version="1.1" id="Layer_1" xmlns="http://www.w3.org/2000/svg" xmlns:xlink="http://www.w3.org/1999/xlink" 
	 viewBox="0 0 511.883 511.883" xml:space="preserve">
<path style="fill:#F6BB42;" d="M511.883,405.251c0,5.874-4.781,10.653-10.67,10.653H10.654C4.765,415.905,0,411.126,0,405.251
	V106.639c0-5.889,4.765-10.661,10.654-10.661h490.559c5.889,0,10.67,4.772,10.67,10.661V405.251z"/>
<path style="fill:#E2A63B;" d="M511.883,106.639H0.001v21.331L246.772,272.5c5.045,2.984,13.293,2.984,18.34,0l246.771-144.529
	V106.639z"/>
<path style="fill:#FFCE54;" d="M501.213,95.979H10.654C4.765,95.979,0,100.751,0,106.64l246.772,144.522c5.045,3,13.293,3,18.34,0
	l246.771-144.521C511.883,100.75,507.102,95.979,501.213,95.979z"/>
<g>
	<path style="fill:#F5F7FA;" d="M95.979,330.581H53.317c-5.89,0-10.669-4.764-10.669-10.653s4.78-10.653,10.669-10.653h42.662
		c5.889,0,10.654,4.764,10.654,10.653S101.868,330.581,95.979,330.581z"/>
	<path style="fill:#F5F7FA;" d="M181.287,373.258H53.317c-5.89,0-10.669-4.779-10.669-10.685c0-5.874,4.78-10.653,10.669-10.653
		h127.971c5.889,0,10.669,4.779,10.669,10.653C191.956,368.478,187.176,373.258,181.287,373.258z"/>
</g>
<polygon style="fill:#434A54;" points="298.588,373.258 347.342,291.996 396.097,373.258 "/>
<polygon style="fill:#656D78;" points="339.219,373.258 404.22,259.495 469.221,373.258 "/>
</svg>