<!DOCTYPE svg PUBLIC "-//W3C//DTD SVG 1.1//EN" "http://www.w3.org/Graphics/SVG/1.1/DTD/svg11.dtd">
<!-- Uploaded to: SVG Repo, www.svgrepo.com, Transformed by: SVG Repo Mixer Tools -->
<svg height="800px" width="800px" version="1.1" id="Layer_1" xmlns="http://www.w3.org/2000/svg" xmlns:xlink="http://www.w3.org/1999/xlink" viewBox="0 0 506.95 506.95" xml:space="preserve" fill="#000000" transform="rotate(90)">
<g id="SVGRepo_bgCarrier" stroke-width="0"/>
<g id="SVGRepo_tracerCarrier" stroke-linecap="round" stroke-linejoin="round"/>
<g id="SVGRepo_iconCarrier"> <path style="fill:#cf3820;" d="M149.875,150.55l-45.2,16.4c-0.4,0-0.4,0-0.8,0c-0.4,0-1.2-0.4-1.6-0.4l-12.4-12.4 c-24,36.4-36.8,78.8-36.8,122.8c0,123.6,100.4,223.6,223.6,223.6s223.6-100.4,223.6-223.6s-100.4-223.6-223.6-223.6 c-43.6,0-86,12.8-122.4,36.4l12.4,12.4c0.4,0.4,0.8,1.2,0.4,2l-16.4,45.2"/> <path style="fill:#F4EFEF;" d="M277.075,453.35c97.2,0,176.4-79.2,176.4-176.4c0-97.2-79.2-176.4-176.4-176.4 c-39.6,0-76.8,12.8-108,36.8c-7.2,5.6-31.2,31.2-31.2,31.2c-24,31.2-36.8,68.4-36.8,108 C100.675,374.15,179.875,453.35,277.075,453.35z"/> <path style="fill:#cf3820;" d="M277.075,405.75c71.2,0,128.8-57.6,128.8-128.8c0-70.8-57.6-128.8-128.8-128.8 c-26.4,0-52.8,9.2-80.4,28c-5.2,3.6-20,20-20,20c-18.4,22.8-28.4,51.6-28.4,80.8C148.275,348.15,205.875,405.75,277.075,405.75z"/> <path style="fill:#F4EFEF;" d="M277.075,358.15c44.8,0,81.2-36.4,81.2-81.2c0-44.8-36.4-81.2-81.2-81.2c-15.2,0-30.4,4.8-46.4,14.4 c-6,3.6-20,20-20.4,20c-9.6,13.6-14.8,29.6-14.8,46.4C195.875,321.75,232.275,358.15,277.075,358.15z"/> <path style="fill:#cf3820;" d="M277.075,310.55c18.4,0,33.2-14.8,33.2-33.2c0-18.4-14.8-33.2-33.2-33.2c-4.4,0-8.4,1.2-11.6,2 c-15.2,4.8-19.2,18.4-19.6,19.2c-1.6,4-2.4,8-2.4,12.4C243.475,295.35,258.675,310.55,277.075,310.55z"/> <polygon style="fill:#3C8E51;" points="119.075,121.75 49.075,51.35 7.875,66.55 91.075,149.75 104.275,163.35 145.475,148.15 "/> <polygon style="fill:#3C8E51;" points="149.875,90.55 66.675,7.35 51.875,48.55 121.875,118.95 148.275,145.35 163.475,104.15 "/> <path d="M277.075,506.95c-126.8,0-229.6-103.2-229.6-229.6c0-46,13.6-90,38.8-128c1.2-2,3.6-2.4,5.6-1.2c2,1.2,2.4,3.6,1.2,5.6 c-24.8,36.4-37.6,79.2-37.6,123.6c0,122.4,99.6,221.6,221.6,221.6c122.4,0,221.6-99.6,221.6-221.6c0-122.4-99.6-221.6-221.6-221.6 c-44,0-86.8,12.8-123.2,37.6c-2,1.2-4.4,0.8-5.6-1.2c-1.2-2-0.8-4.4,1.2-5.6c38-25.2,82-38.8,127.6-38.8 c126.8,0,229.6,103.2,229.6,229.6C506.675,403.75,403.875,506.95,277.075,506.95z"/> <path d="M277.075,459.35c-100.4,0-182-81.6-182-182c0-40.8,13.2-79.6,38.4-112c1.2-1.6,4-2,5.6-0.8s2,4,0.8,5.6 c-24,30.8-36.8,67.6-36.8,106.8c0,96,78,174,174,174s174-78,174-174s-78-174-174-174c-39.2,0-76,12.8-106.8,36.4 c-1.6,1.2-4.4,1.2-5.6-0.8c-1.2-1.6-1.2-4.4,0.8-5.6c32-24.8,70.8-38,111.6-38c100.4,0,182,81.6,182,182 C459.075,377.35,377.475,459.35,277.075,459.35z"/> <path d="M277.075,411.75c-74.4,0-134.8-60.4-134.8-134.8c0-30.8,10.8-60.8,30-84.8c1.2-1.6,4-2,5.6-0.4c1.6,1.2,2,4,0.4,5.6 c-18,22.4-28,50.8-28,79.6c0,70,56.8,126.8,126.8,126.8s126.8-56.8,126.8-126.8s-56.8-126.8-126.8-126.8c-28.8,0-56.4,9.6-78.8,27.6 c-1.6,1.2-4.4,1.2-5.6-0.8c-1.2-1.6-1.2-4.4,0.8-5.6c24-19.2,53.2-29.2,84-29.2c74.4,0,134.8,60.4,134.8,134.8 C411.875,351.35,351.475,411.75,277.075,411.75z"/> <path d="M277.075,364.15c-48,0-87.2-39.2-87.2-87.2c0-18,5.6-35.6,16-50c1.2-2,3.6-2.4,5.6-0.8c2,1.2,2.4,3.6,0.8,5.6 c-9.6,13.2-14.4,29.2-14.4,45.6c0,43.6,35.6,79.2,79.2,79.2c43.6,0,79.2-35.6,79.2-79.2s-35.6-79.2-79.2-79.2 c-16.4,0-32,4.8-45.2,14c-2,1.2-4.4,0.8-5.6-1.2c-1.2-2-0.8-4.4,1.2-5.6c14.8-10,32-15.6,49.6-15.6c48,0,87.2,39.2,87.2,87.2 S325.075,364.15,277.075,364.15z"/> <path d="M277.075,316.55c-21.6,0-39.2-17.6-39.2-39.2c0-4.8,0.8-9.6,2.8-14.4c0.8-2,3.2-3.2,5.2-2.4c2,0.8,3.2,3.2,2.4,5.2 c-1.6,3.6-2,7.6-2,11.2c0,17.2,14,31.2,31.2,31.2s31.2-14,31.2-31.2s-14-31.2-31.2-31.2c-3.6,0-7.2,0.8-10.8,2 c-2,0.8-4.4-0.4-5.2-2.4s0.4-4.4,2.4-5.2c4.4-1.6,8.8-2.4,13.6-2.4c21.6,0,39.2,17.6,39.2,39.2S298.675,316.55,277.075,316.55z"/> <path d="M277.075,280.95c-1.2,0-2-0.4-2.8-1.2l-128-128c-1.6-1.6-1.6-4,0-5.6s4-1.6,5.6,0l128,128c1.6,1.6,1.6,4,0,5.6 C279.475,280.55,278.275,280.95,277.075,280.95z"/> <path d="M103.875,169.35c-1.2,0-2-0.4-2.8-1.2l-99.6-99.6c-0.8-0.8-1.2-2.4-1.2-3.6c0.4-1.2,1.2-2.4,2.4-2.8l45.2-16.4 c1.6-0.4,3.2,0,4.4,0.8l99.6,99.6c0.8,0.8,1.2,2.4,1.2,3.6c-0.4,1.2-1.2,2.4-2.4,2.8l-45.2,16.4 C104.675,169.35,104.275,169.35,103.875,169.35z M11.475,67.35l93.2,93.2l37.2-13.6l-93.2-93.2L11.475,67.35z"/> <path d="M149.075,152.95c-1.2,0-2-0.4-2.8-1.2l-99.6-99.6c-1.2-1.2-1.6-2.8-0.8-4.4l16.4-45.2c0.4-1.2,1.6-2.4,2.8-2.4 c1.2-0.4,2.8,0,3.6,1.2l99.6,99.6c1.2,1.2,1.6,2.8,0.8,4.4l-16.4,45.2c-0.4,1.2-1.6,2.4-2.8,2.4 C149.875,152.95,149.475,152.95,149.075,152.95z M54.275,48.15l93.2,93.2l13.6-37.2l-93.2-93.2L54.275,48.15z"/> </g>
</svg>